<?xml version="1.0" encoding="UTF-8"?>
<svg version="1.1" xmlns="http://www.w3.org/2000/svg" width="500" height="500">
<path d="M0 0 C165 0 330 0 500 0 C500 165 500 330 500 500 C335 500 170 500 0 500 C0 335 0 170 0 0 Z " fill="#FCFBFB" transform="translate(0,0)"/>
<path d="M0 0 C1.32 0 2.64 0 4 0 C4.20979492 0.65669678 4.41958984 1.31339355 4.63574219 1.98999023 C11.80653697 24.17295533 20.35345427 45.92982712 34 65 C34.70382813 65.99386719 35.40765625 66.98773438 36.1328125 68.01171875 C47.86433733 84.09526085 61.22490702 98.80639139 77 111 C77.53012695 111.41717285 78.06025391 111.8343457 78.60644531 112.26416016 C122.94471302 146.99108544 179.58930512 161.08083 235.21875 154.8046875 C261.64408073 151.36464963 286.6371681 142.72790338 310 130 C311.74023438 129.08347656 311.74023438 129.08347656 313.515625 128.1484375 C337.22283947 115.23172648 358.59313742 96.14054756 374.76269531 74.64306641 C375.86916673 73.17373874 376.99210897 71.71684799 378.1171875 70.26171875 C394.13631238 49.06372017 403.78732788 25.06053327 412 0 C413.32 0 414.64 0 416 0 C411.1207358 33.07056844 390.44433541 65.48764508 368.15234375 89.66015625 C366.03283386 91.96430584 363.98564658 94.31995434 361.9375 96.6875 C358.23505424 100.84730671 354.2575082 104.42311386 350 108 C349.07703125 108.82242188 348.1540625 109.64484375 347.203125 110.4921875 C338.73159085 117.98468093 329.65904711 124.1393049 320 130 C319.34660645 130.39960938 318.69321289 130.79921875 318.02001953 131.2109375 C291.31449465 147.38212656 261.86257358 156.26489715 231 160 C230.24968506 160.1023999 229.49937012 160.2047998 228.72631836 160.31030273 C175.74455584 167.13320793 120.30872947 149.74531589 78 118 C73.52137444 114.49864143 69.24044372 110.78392389 65 107 C64.46858398 106.53029785 63.93716797 106.0605957 63.38964844 105.57666016 C57.16100655 100.05744364 51.32686402 94.40817188 46 88 C45.16984375 87.05769531 44.3396875 86.11539063 43.484375 85.14453125 C26.04608923 65.26408172 13.34921562 41.61121793 4.0625 16.9375 C3.76778809 16.1643042 3.47307617 15.3911084 3.16943359 14.59448242 C1.38656151 9.70297212 0.46518967 5.1877481 0 0 Z " fill="#B12121" transform="translate(42,302)"/>
<path d="M0 0 C0.8343457 0.13422363 1.66869141 0.26844727 2.52832031 0.40673828 C43.16799051 7.12545344 81.41168383 24.93980148 111.7421875 52.9296875 C113.76475254 54.78428866 115.83483984 56.55035161 117.9375 58.3125 C145.40792 82.35602656 167.50795539 119.74400782 176 155 C176 155.99 176 156.98 176 158 C174.35 157.67 172.7 157.34 171 157 C170.731875 155.98164063 170.46375 154.96328125 170.1875 153.9140625 C160.75539369 119.35032997 141.3620036 89.85573229 117 64 C116.27167969 63.21753906 115.54335938 62.43507813 114.79296875 61.62890625 C108.44151093 55.01820526 101.31427931 49.49119409 94 44 C93.16726563 43.37222656 92.33453125 42.74445313 91.4765625 42.09765625 C47.56996571 10.25413469 -9.92494351 -3.65786714 -63.5625 4.625 C-119.56314913 14.03089289 -169.56031741 43.52852756 -203 89.75 C-216.51027711 108.83141846 -226.86058539 129.73597187 -234 152 C-234.66531333 154.0004506 -235.33148519 156.000617 -236 158 C-237.32 158 -238.64 158 -240 158 C-238.8102256 150.97189957 -236.96521041 144.50983709 -234.375 137.875 C-234.02163574 136.96266602 -233.66827148 136.05033203 -233.30419922 135.11035156 C-225.80362001 116.10444931 -215.78347559 97.96243513 -203 82 C-202.25878906 81.06671875 -201.51757812 80.1334375 -200.75390625 79.171875 C-195.71534651 72.91952011 -190.45626581 66.89064814 -185 61 C-184.47019531 60.42765625 -183.94039062 59.8553125 -183.39453125 59.265625 C-182.30844192 58.13176048 -181.16178575 57.05616886 -180 56 C-179.34 56 -178.68 56 -178 56 C-178 55.34 -178 54.68 -178 54 C-175.03317037 51.24126463 -171.81321681 48.78857647 -168.62939453 46.28515625 C-167.04446535 45.03507126 -165.47317348 43.76775666 -163.90234375 42.5 C-156.03036936 36.21201296 -147.77558753 30.93423911 -139 26 C-138.34016113 25.62488281 -137.68032227 25.24976562 -137.00048828 24.86328125 C-119.26284428 14.85195509 -100.69962902 8.05065399 -81 3 C-79.15341797 2.52240234 -79.15341797 2.52240234 -77.26953125 2.03515625 C-52.49920704 -3.80169623 -25.05117584 -4.09818314 0 0 Z " fill="#B22222" transform="translate(282,34)"/>
<path d="M0 0 C1.32 0 2.64 0 4 0 C4.229151 0.59389023 4.458302 1.18778046 4.69439697 1.79966736 C7.09284867 8.01439428 9.4944948 14.22787997 11.89794922 20.44067383 C12.79296513 22.7554649 13.68718256 25.07056488 14.58056641 27.38598633 C15.86928816 30.72560027 17.16093463 34.06407062 18.453125 37.40234375 C19.04556 38.94038918 19.04556 38.94038918 19.64996338 40.50950623 C23.10535192 50.98796985 23.10535192 50.98796985 29 60 C31.57061311 60.64767793 31.57061311 60.64767793 34 61 C34 62.32 34 63.64 34 65 C25.42 65 16.84 65 8 65 C8 64.01 8 63.02 8 62 C10.31 61.34 12.62 60.68 15 60 C14.00267443 55.13008048 12.89731633 50.60776823 11 46 C11 45.01 11 44.02 11 43 C3.41 43.33 -4.18 43.66 -12 44 C-14.54005791 50.30456704 -14.54005791 50.30456704 -15.6875 56.5 C-15.8421875 58.2325 -15.8421875 58.2325 -16 60 C-13.36 60.33 -10.72 60.66 -8 61 C-7.67 62.32 -7.34 63.64 -7 65 C-14.92 65 -22.84 65 -31 65 C-31 64.01 -31 63.02 -31 62 C-30.0925 61.62875 -29.185 61.2575 -28.25 60.875 C-21.24112692 56.83141938 -19.25345872 49.05848645 -16.5234375 41.8359375 C-16.11211578 40.76630768 -15.70079407 39.69667786 -15.27700806 38.59463501 C-13.96940737 35.19069893 -12.67179749 31.78306467 -11.375 28.375 C-10.06921407 24.96053327 -8.76135875 21.54687431 -7.4515686 18.13394165 C-6.63858274 16.01371499 -5.82824274 13.89247147 -5.02084351 11.77011108 C-4.65351105 10.80876251 -4.28617859 9.84741394 -3.90771484 8.85693359 C-3.58668793 8.01343353 -3.26566101 7.16993347 -2.93490601 6.3008728 C-2.05564685 4.13695101 -1.07581366 2.07211827 0 0 Z " fill="#AF1B1B" transform="translate(279,212)"/>
<path d="M0 0 C1.32 0 2.64 0 4 0 C4.229151 0.59389023 4.458302 1.18778046 4.69439697 1.79966736 C7.09284867 8.01439428 9.4944948 14.22787997 11.89794922 20.44067383 C12.79296513 22.7554649 13.68718256 25.07056488 14.58056641 27.38598633 C15.86928816 30.72560027 17.16093463 34.06407062 18.453125 37.40234375 C19.04556 38.94038918 19.04556 38.94038918 19.64996338 40.50950623 C23.10535192 50.98796985 23.10535192 50.98796985 29 60 C31.57061311 60.64767793 31.57061311 60.64767793 34 61 C34 62.32 34 63.64 34 65 C25.42 65 16.84 65 8 65 C8 64.01 8 63.02 8 62 C10.31 61.34 12.62 60.68 15 60 C14.00267443 55.13008048 12.89731633 50.60776823 11 46 C11 45.01 11 44.02 11 43 C3.41 43.33 -4.18 43.66 -12 44 C-14.54005791 50.30456704 -14.54005791 50.30456704 -15.6875 56.5 C-15.8421875 58.2325 -15.8421875 58.2325 -16 60 C-13.36 60.33 -10.72 60.66 -8 61 C-7.67 62.32 -7.34 63.64 -7 65 C-14.92 65 -22.84 65 -31 65 C-31 64.01 -31 63.02 -31 62 C-30.0925 61.62875 -29.185 61.2575 -28.25 60.875 C-21.24112692 56.83141938 -19.25345872 49.05848645 -16.5234375 41.8359375 C-16.11211578 40.76630768 -15.70079407 39.69667786 -15.27700806 38.59463501 C-13.96940737 35.19069893 -12.67179749 31.78306467 -11.375 28.375 C-10.06921407 24.96053327 -8.76135875 21.54687431 -7.4515686 18.13394165 C-6.63858274 16.01371499 -5.82824274 13.89247147 -5.02084351 11.77011108 C-4.65351105 10.80876251 -4.28617859 9.84741394 -3.90771484 8.85693359 C-3.58668793 8.01343353 -3.26566101 7.16993347 -2.93490601 6.3008728 C-2.05564685 4.13695101 -1.07581366 2.07211827 0 0 Z " fill="#AF1B1B" transform="translate(90,212)"/>
<path d="M0 0 C1.32 0 2.64 0 4 0 C4.4532666 1.19375244 4.9065332 2.38750488 5.37353516 3.61743164 C7.08314665 8.11891279 8.79450566 12.61972799 10.50634766 17.12036133 C11.24183789 19.05475521 11.97687713 20.98932064 12.71142578 22.92407227 C14.80829632 28.44659419 16.91805577 33.96392031 19.03869629 39.47735596 C19.93834344 41.83820145 20.81546306 44.20612689 21.68652344 46.57763672 C22.19428527 47.92559749 22.70239696 49.27342656 23.2109375 50.62109375 C23.84588135 52.34283813 23.84588135 52.34283813 24.49365234 54.09936523 C26.73203801 58.40961808 29.4285346 60.4761782 34 62 C34 62.99 34 63.98 34 65 C25.09 65 16.18 65 7 65 C7 64.01 7 63.02 7 62 C9.64 61.67 12.28 61.34 15 61 C14.54619105 59.10307857 14.08675008 57.20750405 13.625 55.3125 C13.36976563 54.25675781 13.11453125 53.20101562 12.8515625 52.11328125 C11.96298766 48.63373888 11.96298766 48.63373888 10 44 C2.41 43.67 -5.18 43.34 -13 43 C-13.33 44.65 -13.66 46.3 -14 48 C-14.350625 48.99 -14.70125 49.98 -15.0625 51 C-15.96582539 53.89064125 -16.25715229 55.99988993 -16 59 C-14.03177114 60.96822886 -10.65191291 60.66248381 -8 61 C-8 62.32 -8 63.64 -8 65 C-15.92 65 -23.84 65 -32 65 C-32 64.01 -32 63.02 -32 62 C-31.20335937 61.70609375 -31.20335937 61.70609375 -30.390625 61.40625 C-29.68421875 61.1071875 -28.9778125 60.808125 -28.25 60.5 C-27.55390625 60.2215625 -26.8578125 59.943125 -26.140625 59.65625 C-20.33512279 55.16440158 -18.03231543 45.205853 -15.48828125 38.53515625 C-15.07458786 37.4612413 -14.66089447 36.38732635 -14.23466492 35.28086853 C-12.92350601 31.87618114 -11.61756052 28.46952918 -10.3125 25.0625 C-8.99625511 21.63066442 -7.67884817 18.19929345 -6.35820007 14.76914978 C-5.53862923 12.6401059 -4.72167464 10.51005276 -3.907547 8.37892151 C-3.54013901 7.42380173 -3.17273102 6.46868195 -2.79418945 5.48461914 C-2.47094193 4.64048965 -2.1476944 3.79636017 -1.81465149 2.926651 C-1 1 -1 1 0 0 Z " fill="#AF1B1B" transform="translate(405,212)"/>
<path d="M0 0 C1.32 0 2.64 0 4 0 C4.96625253 2.40485837 5.93136601 4.81016302 6.89501953 7.21606445 C7.76896516 9.39432524 8.64633824 11.57121352 9.52685547 13.74682617 C11.9139591 19.67173769 14.24362636 25.60733148 16.44496155 31.60404968 C17.54951484 34.60718493 18.67506384 37.60227651 19.80166626 40.59719849 C20.34798148 42.0671406 20.88421617 43.54087093 21.41000366 45.01828003 C24.38994744 54.4986039 24.38994744 54.4986039 31.3984375 60.94921875 C33.18121094 61.46935547 33.18121094 61.46935547 35 62 C35 62.99 35 63.98 35 65 C26.09 65 17.18 65 8 65 C8 64.01 8 63.02 8 62 C10.31 61.34 12.62 60.68 15 60 C14.33425105 53.87510962 12.84081832 49.13606108 11 43 C3.41 43.33 -4.18 43.66 -12 44 C-14.7983326 51.6862852 -14.7983326 51.6862852 -15 59 C-12.36 59.99 -9.72 60.98 -7 62 C-7 62.99 -7 63.98 -7 65 C-14.92 65 -22.84 65 -31 65 C-31 64.01 -31 63.02 -31 62 C-29.78828125 61.58363281 -28.5765625 61.16726563 -27.328125 60.73828125 C-21.28923424 57.68564056 -19.94648076 52.24819981 -17.75 46.1875 C-17.07553833 44.43215942 -17.07553833 44.43215942 -16.38745117 42.64135742 C-15.41944243 40.1157633 -14.46204674 37.58851598 -13.51904297 35.05371094 C-11.93010932 30.79306487 -10.28349695 26.55581772 -8.62890625 22.3203125 C-5.72889479 14.88921037 -2.85629034 7.44801966 0 0 Z " fill="#AF1A1A" transform="translate(211,212)"/>
<path d="M0 0 C0.33 -0.66 0.66 -1.32 1 -2 C2.32 -2 3.64 -2 5 -2 C5 4.93 5 11.86 5 19 C3.68 19 2.36 19 1 19 C0.76925781 18.26394531 0.53851563 17.52789062 0.30078125 16.76953125 C-1.6347434 10.97825789 -3.10189854 6.76777035 -8 3 C-12.06300912 1.64566363 -15.75275369 1.47867735 -20 2 C-22.75 3.25 -22.75 3.25 -24 6 C-24.37987012 9.04454732 -24.32727298 11.95260568 -24 15 C-23.93167969 15.7115625 -23.86335938 16.423125 -23.79296875 17.15625 C-23.15125037 19.19236508 -23.15125037 19.19236508 -21 20.0078125 C-20.01 20.33523437 -19.02 20.66265625 -18 21 C-14.98210632 22.25014491 -11.99353704 23.56775736 -9 24.875 C-7.80890625 25.38353516 -7.80890625 25.38353516 -6.59375 25.90234375 C-1.15005515 28.28849666 3.35034613 30.61084612 6.8125 35.625 C8.66734511 40.89666504 9.24270927 46.01340654 7.05078125 51.28125 C3.32114054 57.58751947 -0.92111186 60.99089527 -8 63 C-15.9500749 63.76807499 -22.62195539 63.00123848 -30 60 C-30.495 60.99 -30.495 60.99 -31 62 C-32.32 62 -33.64 62 -35 62 C-36.17402193 54.66236293 -36.09377123 47.41834582 -36 40 C-34.68 40 -33.36 40 -32 40 C-31.34644531 41.44632812 -31.34644531 41.44632812 -30.6796875 42.921875 C-30.07900275 44.19833009 -29.4773907 45.4743491 -28.875 46.75 C-28.59140625 47.38421875 -28.3078125 48.0184375 -28.015625 48.671875 C-25.83427404 53.22425961 -23.64863975 55.66989823 -19 58 C-15.9452591 58.58725802 -15.9452591 58.58725802 -12.875 58.4375 C-11.86179687 58.43621094 -10.84859375 58.43492187 -9.8046875 58.43359375 C-6.65065228 57.9459922 -5.26510132 57.21812917 -3 55 C-1.43697961 50.31093882 -1.03404673 45.9734571 -3.21459961 41.51855469 C-5.26767563 38.62240642 -6.63498442 37.8782469 -9.89453125 36.5703125 C-10.85037109 36.16683594 -11.80621094 35.76335937 -12.79101562 35.34765625 C-14.79255388 34.53772545 -16.79514789 33.73039843 -18.79882812 32.92578125 C-24.93905829 30.32783296 -29.42774237 27.77565015 -33 22 C-34.68628577 16.94114269 -35.25740599 11.63606185 -32.90625 6.70703125 C-24.6141405 -5.04747503 -12.69161535 -5.38432166 0 0 Z " fill="#B01C1C" transform="translate(43,215)"/>
<path d="M0 0 C18.48 0 36.96 0 56 0 C56 5.94 56 11.88 56 18 C55.01 18 54.02 18 53 18 C52.65388672 17.22076172 52.65388672 17.22076172 52.30078125 16.42578125 C50.15054175 11.82783828 48.24355005 7.97951387 44 5 C41.26641047 4.5344493 41.26641047 4.5344493 38.31640625 4.37109375 C37.3219751 4.29689209 36.32754395 4.22269043 35.30297852 4.14624023 C34.54299561 4.09798096 33.7830127 4.04972168 33 4 C33.09210172 11.51162353 33.19938463 19.02291858 33.31738281 26.53417969 C33.3557398 29.09109537 33.39058062 31.64806625 33.421875 34.20507812 C33.46737976 37.87389909 33.5253981 41.54233773 33.5859375 45.2109375 C33.59748871 46.35992523 33.60903992 47.50891296 33.62094116 48.69271851 C33.64081085 49.7536673 33.66068054 50.81461609 33.68115234 51.90771484 C33.69447601 52.84481293 33.70779968 53.78191101 33.7215271 54.74740601 C33.79034466 57.20035151 33.79034466 57.20035151 36 59 C38.32275177 59.40047444 40.65739357 59.7397104 43 60 C43 61.32 43 62.64 43 64 C33.1 64 23.2 64 13 64 C13 63.01 13 62.02 13 61 C16.3 60.34 19.6 59.68 23 59 C23.33 40.85 23.66 22.7 24 4 C12.52858816 3.62922843 12.52858816 3.62922843 8.375 8.75 C6.57304454 11.69672716 5.03345875 14.69293201 4 18 C2.68 18 1.36 18 0 18 C0 12.06 0 6.12 0 0 Z " fill="#B01C1C" transform="translate(440,213)"/>
<path d="M0 0 C8.58 0 17.16 0 26 0 C26 1.32 26 2.64 26 4 C23.69 4.33 21.38 4.66 19 5 C19.75042725 9.83749995 21.45442402 14.23777423 23.16015625 18.80078125 C23.46948593 19.63715622 23.77881561 20.47353119 24.09751892 21.33525085 C25.08236103 23.99564091 26.07235341 26.65408021 27.0625 29.3125 C27.73276298 31.12031628 28.40268869 32.92825764 29.07226562 34.73632812 C30.71093959 39.15901087 32.35423397 43.57995171 34 48 C36.71195441 45.28804559 37.6899426 42.09602046 39.0390625 38.578125 C39.32478119 37.84051941 39.61049988 37.10291382 39.90487671 36.34295654 C40.50776638 34.78050512 41.10775942 33.21693339 41.70507812 31.65234375 C42.61774277 29.268952 43.54659795 26.89231065 44.4765625 24.515625 C45.06090139 22.99517774 45.64426639 21.47435577 46.2265625 19.953125 C46.64369003 18.89342499 46.64369003 18.89342499 47.06924438 17.81231689 C48.60867085 13.72562614 49.30222424 10.36394773 49 6 C46.36 5.34 43.72 4.68 41 4 C41 2.68 41 1.36 41 0 C48.92 0 56.84 0 65 0 C65 1.32 65 2.64 65 4 C62.98177083 4.32552083 60.96354167 4.65104167 58.9453125 4.9765625 C55.98268885 6.53521189 55.97680945 8.86978541 55 12 C54.18481371 14.0365391 53.34896485 16.06489047 52.49609375 18.0859375 C52.00657227 19.25358643 51.51705078 20.42123535 51.01269531 21.62426758 C50.75540649 22.23654205 50.49811768 22.84881653 50.23303223 23.47964478 C44.47635893 37.19491669 39.09758932 51.02469655 34 65 C31.6519928 64.82540894 31.6519928 64.82540894 29 64 C27.62840271 61.7739563 27.62840271 61.7739563 26.56811523 58.79345703 C26.16096786 57.68205353 25.7538205 56.57065002 25.33433533 55.42556763 C24.91334061 54.21520844 24.49234589 53.00484924 24.05859375 51.7578125 C23.37177062 49.87184337 22.68493416 47.98587897 21.99730778 46.10020256 C21.0375736 43.45338471 20.09616134 40.80020694 19.1550293 38.14672852 C17.50937677 33.50989676 15.84962015 28.87826882 14.16798401 24.25436401 C13.27444967 21.79173606 12.39362321 19.3244532 11.52671814 16.85232544 C11.12272293 15.73461761 10.71872772 14.61690979 10.30249023 13.46533203 C9.95339096 12.48017609 9.60429169 11.49502014 9.24461365 10.48001099 C7.85542051 7.71191162 6.63159604 6.58337791 4 5 C1.85266073 4.29485154 1.85266073 4.29485154 0 4 C0 2.68 0 1.36 0 0 Z " fill="#B01E1E" transform="translate(311,213)"/>
<path d="M0 0 C9.24 0 18.48 0 28 0 C28 1.32 28 2.64 28 4 C26.865625 4.309375 25.73125 4.61875 24.5625 4.9375 C21.21224901 5.62924531 21.21224901 5.62924531 20 7 C19.90894999 8.40059977 19.88536169 9.8056797 19.88989258 11.20922852 C19.88931351 12.10428604 19.88873444 12.99934357 19.88813782 13.92152405 C19.89024765 14.89746017 19.89235748 15.8733963 19.89453125 16.87890625 C19.88106649 18.93555731 19.86604177 20.99219864 19.84960938 23.04882812 C19.82683691 26.29892418 19.81244394 29.54793102 19.82495117 32.7980957 C19.83380308 35.92999608 19.80476963 39.05973004 19.76953125 42.19140625 C19.78176224 43.15317276 19.79399323 44.11493927 19.80659485 45.10585022 C19.68401826 51.98581547 17.9050987 56.13321576 13 61 C6.98493999 65.95222414 0.51794135 65.66579554 -7 65 C-11.47915015 62.91487838 -14.18908976 60.62788172 -16 56 C-16.99931621 47.33925955 -16.99931621 47.33925955 -14.66796875 44.21484375 C-12.11876242 42.35816186 -10.05557957 42.67493834 -7 43 C-5 45 -5 45 -4.6875 48.3125 C-5.01588529 52.18744646 -5.9554454 53.79982758 -8 57 C-7.67 57.99 -7.34 58.98 -7 60 C-3.79779471 61.60110264 -0.47499602 61.48953317 3 61 C6.85453393 58.36268731 7.84983604 55.42489351 9 51 C9.26382434 47.52078737 9.23307361 44.05778081 9.1953125 40.5703125 C9.19106766 39.084814 9.19106766 39.084814 9.18673706 37.56930542 C9.1755847 34.42107824 9.15048907 31.27314051 9.125 28.125 C9.11496382 25.98437912 9.10583908 23.84375376 9.09765625 21.703125 C9.07566153 16.46863928 9.04116563 11.23436864 9 6 C6.03 5.34 3.06 4.68 0 4 C0 2.68 0 1.36 0 0 Z " fill="#AF1818" transform="translate(148,213)"/>
<path d="M0 0 C2.68300071 1.34150035 2.8437032 2.60687715 3.9453125 5.3671875 C4.29980469 6.25277344 4.65429688 7.13835937 5.01953125 8.05078125 C5.38433594 8.98277344 5.74914062 9.91476563 6.125 10.875 C6.68380859 12.26138672 6.68380859 12.26138672 7.25390625 13.67578125 C10 20.60639881 10 20.60639881 10 24 C3.73 24 -2.54 24 -9 24 C-8.071875 21.339375 -7.14375 18.67875 -6.1875 15.9375 C-5.75860474 14.70181274 -5.75860474 14.70181274 -5.32104492 13.44116211 C-3.71789892 8.87348138 -1.95795026 4.42743707 0 0 Z " fill="#F9F2F2" transform="translate(403,227)"/>
<path d="M0 0 C2.22859692 2.22859692 2.84283838 3.82373248 3.9453125 6.75390625 C4.29980469 7.69041016 4.65429688 8.62691406 5.01953125 9.59179688 C5.38433594 10.57212891 5.74914062 11.55246094 6.125 12.5625 C6.68380859 14.03879883 6.68380859 14.03879883 7.25390625 15.54492188 C10 22.84269116 10 22.84269116 10 24 C3.73 24 -2.54 24 -9 24 C-3.0625 3.0625 -3.0625 3.0625 0 0 Z " fill="#F9F2F2" transform="translate(210,227)"/>
<path d="M0 0 C0.66 0 1.32 0 2 0 C3.34146494 3.43438215 4.67175905 6.87298417 6 10.3125 C6.3815625 11.28896484 6.763125 12.26542969 7.15625 13.27148438 C7.5171875 14.20927734 7.878125 15.14707031 8.25 16.11328125 C8.58515625 16.97735596 8.9203125 17.84143066 9.265625 18.73168945 C10 21 10 21 10 24 C4.06 24 -1.88 24 -8 24 C-7.29613326 20.48066629 -6.60301642 17.64806207 -5.37109375 14.35546875 C-4.90219727 13.09379883 -4.90219727 13.09379883 -4.42382812 11.80664062 C-4.09833984 10.94232422 -3.77285156 10.07800781 -3.4375 9.1875 C-3.10814453 8.30384766 -2.77878906 7.42019531 -2.43945312 6.50976562 C-1.62965399 4.33856505 -0.81641107 2.16872111 0 0 Z " fill="#F9F3F3" transform="translate(277,227)"/>
<path d="M0 0 C0.66 0 1.32 0 2 0 C3.34146494 3.43438215 4.67175905 6.87298417 6 10.3125 C6.3815625 11.28896484 6.763125 12.26542969 7.15625 13.27148438 C7.5171875 14.20927734 7.878125 15.14707031 8.25 16.11328125 C8.58515625 16.97735596 8.9203125 17.84143066 9.265625 18.73168945 C10 21 10 21 10 24 C4.06 24 -1.88 24 -8 24 C-7.29613326 20.48066629 -6.60301642 17.64806207 -5.37109375 14.35546875 C-4.90219727 13.09379883 -4.90219727 13.09379883 -4.42382812 11.80664062 C-4.09833984 10.94232422 -3.77285156 10.07800781 -3.4375 9.1875 C-3.10814453 8.30384766 -2.77878906 7.42019531 -2.43945312 6.50976562 C-1.62965399 4.33856505 -0.81641107 2.16872111 0 0 Z " fill="#F9F3F3" transform="translate(88,227)"/>
<path d="M0 0 C3.88014936 1.52059907 5.73906562 3.86078531 8.25 7.125 C8.95640625 8.03507812 9.6628125 8.94515625 10.390625 9.8828125 C11.18726563 10.93082031 11.18726563 10.93082031 12 12 C12.33 8.37 12.66 4.74 13 1 C14.32 1 15.64 1 17 1 C17 7.27 17 13.54 17 20 C15.68 20 14.36 20 13 20 C10.640625 17.59375 10.640625 17.59375 8.25 14.5 C7.05117188 12.96859375 7.05117188 12.96859375 5.828125 11.40625 C5.22484375 10.6121875 4.6215625 9.818125 4 9 C3.67 12.63 3.34 16.26 3 20 C1.68 20 0.36 20 -1 20 C-1.02888514 16.85418577 -1.04675923 13.70840531 -1.0625 10.5625 C-1.07087891 9.66466797 -1.07925781 8.76683594 -1.08789062 7.84179688 C-1.09111328 6.98779297 -1.09433594 6.13378906 -1.09765625 5.25390625 C-1.10551147 4.06776733 -1.10551147 4.06776733 -1.11352539 2.85766602 C-1 1 -1 1 0 0 Z " fill="#B83434" transform="translate(255,310)"/>
<path d="M0 0 C1.65322266 0.01740234 1.65322266 0.01740234 3.33984375 0.03515625 C4.99693359 0.04869141 4.99693359 0.04869141 6.6875 0.0625 C7.54214844 0.07410156 8.39679688 0.08570313 9.27734375 0.09765625 C9.27734375 1.41765625 9.27734375 2.73765625 9.27734375 4.09765625 C6.30734375 4.09765625 3.33734375 4.09765625 0.27734375 4.09765625 C0.27734375 5.74765625 0.27734375 7.39765625 0.27734375 9.09765625 C2.91734375 9.09765625 5.55734375 9.09765625 8.27734375 9.09765625 C8.27734375 10.08765625 8.27734375 11.07765625 8.27734375 12.09765625 C5.63734375 12.09765625 2.99734375 12.09765625 0.27734375 12.09765625 C0.27734375 14.07765625 0.27734375 16.05765625 0.27734375 18.09765625 C3.57734375 18.09765625 6.87734375 18.09765625 10.27734375 18.09765625 C9.94734375 19.08765625 9.61734375 20.07765625 9.27734375 21.09765625 C7.29824977 21.12452178 5.31905404 21.14399 3.33984375 21.16015625 C2.23769531 21.17175781 1.13554687 21.18335938 0 21.1953125 C-2.72265625 21.09765625 -2.72265625 21.09765625 -3.72265625 20.09765625 C-3.82125756 18.6941689 -3.85344562 17.28585148 -3.85546875 15.87890625 C-3.85675781 15.02941406 -3.85804688 14.17992187 -3.859375 13.3046875 C-3.85550781 12.41136719 -3.85164062 11.51804687 -3.84765625 10.59765625 C-3.85152344 9.70433594 -3.85539063 8.81101562 -3.859375 7.890625 C-3.85808594 7.04113281 -3.85679687 6.19164062 -3.85546875 5.31640625 C-3.85434082 4.53201172 -3.85321289 3.74761719 -3.85205078 2.93945312 C-3.63986602 -0.08077682 -3.05143485 0.10944888 0 0 Z " fill="#B32626" transform="translate(232.72265625,309.90234375)"/>
<path d="M0 0 C1.65322266 0.01740234 1.65322266 0.01740234 3.33984375 0.03515625 C4.99693359 0.04869141 4.99693359 0.04869141 6.6875 0.0625 C7.54214844 0.07410156 8.39679688 0.08570313 9.27734375 0.09765625 C9.27734375 1.41765625 9.27734375 2.73765625 9.27734375 4.09765625 C6.30734375 4.09765625 3.33734375 4.09765625 0.27734375 4.09765625 C0.27734375 5.74765625 0.27734375 7.39765625 0.27734375 9.09765625 C2.91734375 9.09765625 5.55734375 9.09765625 8.27734375 9.09765625 C8.27734375 10.08765625 8.27734375 11.07765625 8.27734375 12.09765625 C5.63734375 12.09765625 2.99734375 12.09765625 0.27734375 12.09765625 C0.27734375 14.07765625 0.27734375 16.05765625 0.27734375 18.09765625 C3.57734375 18.09765625 6.87734375 18.09765625 10.27734375 18.09765625 C9.94734375 19.08765625 9.61734375 20.07765625 9.27734375 21.09765625 C7.29824977 21.12452178 5.31905404 21.14399 3.33984375 21.16015625 C2.23769531 21.17175781 1.13554687 21.18335938 0 21.1953125 C-2.72265625 21.09765625 -2.72265625 21.09765625 -3.72265625 20.09765625 C-3.82125756 18.6941689 -3.85344562 17.28585148 -3.85546875 15.87890625 C-3.85675781 15.02941406 -3.85804688 14.17992187 -3.859375 13.3046875 C-3.85550781 12.41136719 -3.85164062 11.51804687 -3.84765625 10.59765625 C-3.85152344 9.70433594 -3.85539063 8.81101562 -3.859375 7.890625 C-3.85808594 7.04113281 -3.85679687 6.19164062 -3.85546875 5.31640625 C-3.85434082 4.53201172 -3.85321289 3.74761719 -3.85205078 2.93945312 C-3.63986602 -0.08077682 -3.05143485 0.10944888 0 0 Z " fill="#B42A2A" transform="translate(178.72265625,309.90234375)"/>
<path d="M0 0 C2.375 1.375 2.375 1.375 4 3 C4 3.66 4 4.32 4 5 C0.7 5 -2.6 5 -6 5 C-5.363603 8.0836385 -5.363603 8.0836385 -3.1875 8.9140625 C-2.465625 9.14867187 -1.74375 9.38328125 -1 9.625 C2.93048128 10.93048128 2.93048128 10.93048128 4 12 C4.46665026 17.36647797 4.46665026 17.36647797 2.765625 19.67578125 C0.53093461 21.35179904 -0.73189324 21.37247565 -3.5 21.3125 C-4.2734375 21.30863281 -5.046875 21.30476563 -5.84375 21.30078125 C-8 21 -8 21 -11 19 C-11 18.01 -11 17.02 -11 16 C-10.30132812 16.0721875 -9.60265625 16.144375 -8.8828125 16.21875 C-7.51769531 16.35796875 -7.51769531 16.35796875 -6.125 16.5 C-4.76761719 16.63921875 -4.76761719 16.63921875 -3.3828125 16.78125 C-1.06686789 17.03047295 -1.06686789 17.03047295 1 17 C0.67 16.01 0.34 15.02 0 14 C-1.80077673 13.0534089 -1.80077673 13.0534089 -3.9375 12.4375 C-6.72850228 11.54093484 -7.87774645 11.12225355 -10 9 C-10.375 6.0625 -10.375 6.0625 -10 3 C-7.08783566 -0.36018962 -4.28391942 -0.53548993 0 0 Z " fill="#B22222" transform="translate(321,310)"/>
<path d="M0 0 C3 1 3 1 4.60546875 3.72265625 C5.12753906 4.82480469 5.64960938 5.92695313 6.1875 7.0625 C6.71730469 8.16722656 7.24710938 9.27195312 7.79296875 10.41015625 C8.19128906 11.26480469 8.58960938 12.11945313 9 13 C10.65 9.04 12.3 5.08 14 1 C15.32 1 16.64 1 18 1 C16.54884678 5.57888152 14.79418096 9.97649435 12.875 14.375 C12.59785156 15.01566406 12.32070312 15.65632813 12.03515625 16.31640625 C11.35899615 17.87856925 10.67981293 19.43942315 10 21 C9.01 21 8.02 21 7 21 C5.62999799 18.06963123 4.28181448 15.12973086 2.9375 12.1875 C2.54755859 11.35412109 2.15761719 10.52074219 1.75585938 9.66210938 C1.39169922 8.85966797 1.02753906 8.05722656 0.65234375 7.23046875 C0.14175415 6.12288208 0.14175415 6.12288208 -0.37915039 4.99291992 C-1 3 -1 3 0 0 Z " fill="#B42828" transform="translate(200,310)"/>
<path d="M0 0 C4.95 0 9.9 0 15 0 C15 1.32 15 2.64 15 4 C13.02 4 11.04 4 9 4 C9 9.61 9 15.22 9 21 C8.01 21 7.02 21 6 21 C6 15.39 6 9.78 6 4 C4.02 4 2.04 4 0 4 C0 2.68 0 1.36 0 0 Z " fill="#B32727" transform="translate(284,310)"/>
<path d="M0 0 C2.31 0 4.62 0 7 0 C7 1.32 7 2.64 7 4 C4.69 4 2.38 4 0 4 C0 2.68 0 1.36 0 0 Z " fill="#B83535" transform="translate(354,320)"/>
<path d="M0 0 C2.31 0 4.62 0 7 0 C7 1.32 7 2.64 7 4 C4.69 4 2.38 4 0 4 C0 2.68 0 1.36 0 0 Z " fill="#B83535" transform="translate(139,320)"/>
</svg>
