<?xml version="1.0" encoding="UTF-8"?>
<svg version="1.1" xmlns="http://www.w3.org/2000/svg" width="500" height="500">
<path d="M0 0 C165 0 330 0 500 0 C500 165 500 330 500 500 C335 500 170 500 0 500 C0 335 0 170 0 0 Z " fill="#6A2929" transform="translate(0,0)"/>
<path d="M0 0 C1.32 0 2.64 0 4 0 C4.20979492 0.65669678 4.41958984 1.31339355 4.63574219 1.98999023 C11.80653697 24.17295533 20.35345427 45.92982712 34 65 C34.70382813 65.99386719 35.40765625 66.98773438 36.1328125 68.01171875 C47.86433733 84.09526085 61.22490702 98.80639139 77 111 C77.53012695 111.41717285 78.06025391 111.8343457 78.60644531 112.26416016 C122.22151887 146.42466031 178.40633083 161.0328626 233.27490234 155.11621094 C260.3833729 151.68257897 286.03574673 143.05555344 310 130 C311.74023438 129.08347656 311.74023438 129.08347656 313.515625 128.1484375 C337.22283947 115.23172648 358.59313742 96.14054756 374.76269531 74.64306641 C375.86916673 73.17373874 376.99210897 71.71684799 378.1171875 70.26171875 C394.13631238 49.06372017 403.78732788 25.06053327 412 0 C413.32 0 414.64 0 416 0 C411.1207358 33.07056844 390.44433541 65.48764508 368.15234375 89.66015625 C366.03283386 91.96430584 363.98564658 94.31995434 361.9375 96.6875 C358.235456 100.84685532 354.25967901 104.42620151 350 108 C349.05382812 108.83402344 348.10765625 109.66804688 347.1328125 110.52734375 C314.66799902 138.99485108 273.52637815 154.85330036 231 160 C230.24968506 160.1023999 229.49937012 160.2047998 228.72631836 160.31030273 C175.74455584 167.13320793 120.30872947 149.74531589 78 118 C73.52137444 114.49864143 69.24044372 110.78392389 65 107 C64.46858398 106.53029785 63.93716797 106.0605957 63.38964844 105.57666016 C57.16100655 100.05744364 51.32686402 94.40817188 46 88 C45.16984375 87.05769531 44.3396875 86.11539063 43.484375 85.14453125 C26.04608923 65.26408172 13.34921562 41.61121793 4.0625 16.9375 C3.76778809 16.1643042 3.47307617 15.3911084 3.16943359 14.59448242 C1.38656151 9.70297212 0.46518967 5.1877481 0 0 Z " fill="#F3EEEE" transform="translate(42,302)"/>
<path d="M0 0 C0.64565918 0.17756836 1.29131836 0.35513672 1.95654297 0.53808594 C33.99278701 9.55807736 63.26735496 25.34358802 87.7421875 47.9296875 C89.76475254 49.78428866 91.83483984 51.55035161 93.9375 53.3125 C121.40792 77.35602656 143.50795539 114.74400782 152 150 C152 150.99 152 151.98 152 153 C150.35 152.67 148.7 152.34 147 152 C146.731875 150.98164063 146.46375 149.96328125 146.1875 148.9140625 C136.75539369 114.35032997 117.3620036 84.85573229 93 59 C92.27167969 58.21753906 91.54335938 57.43507813 90.79296875 56.62890625 C84.44151093 50.01820526 77.31427931 44.49119409 70 39 C69.16726563 38.37222656 68.33453125 37.74445313 67.4765625 37.09765625 C38.02647883 15.73880717 3.84652823 3.64684266 -32 -1 C-32.67828857 -1.09643799 -33.35657715 -1.19287598 -34.05541992 -1.29223633 C-85.45718546 -7.97947977 -140.90639775 7.80284768 -182 39 C-218.16583179 66.92959274 -244.04408921 103.47895415 -258 147 C-258.66531333 149.0004506 -259.33148519 151.000617 -260 153 C-261.32 153 -262.64 153 -264 153 C-262.8102256 145.97189957 -260.96521041 139.50983709 -258.375 132.875 C-258.02163574 131.96266602 -257.66827148 131.05033203 -257.30419922 130.11035156 C-249.80362001 111.10444931 -239.78347559 92.96243513 -227 77 C-226.25878906 76.06671875 -225.51757812 75.1334375 -224.75390625 74.171875 C-214.51858414 61.47085138 -203.77516484 50.13717625 -191 40 C-189.98679687 39.18144531 -188.97359375 38.36289063 -187.9296875 37.51953125 C-180.04612231 31.22734619 -171.78601369 25.94010141 -163 21 C-162.34016113 20.62488281 -161.68032227 20.24976562 -161.00048828 19.86328125 C-143.26284428 9.85195509 -124.69962902 3.05065399 -105 -2 C-103.15341797 -2.47759766 -103.15341797 -2.47759766 -101.26953125 -2.96484375 C-68.55764322 -10.67303776 -32.24411874 -8.87248948 0 0 Z " fill="#F3EDED" transform="translate(306,39)"/>
<path d="M0 0 C1.32 0 2.64 0 4 0 C4.229151 0.59389023 4.458302 1.18778046 4.69439697 1.79966736 C7.09284867 8.01439428 9.4944948 14.22787997 11.89794922 20.44067383 C12.79296513 22.7554649 13.68718256 25.07056488 14.58056641 27.38598633 C15.86928816 30.72560027 17.16093463 34.06407062 18.453125 37.40234375 C19.04556 38.94038918 19.04556 38.94038918 19.64996338 40.50950623 C23.10535192 50.98796985 23.10535192 50.98796985 29 60 C31.57061311 60.64767793 31.57061311 60.64767793 34 61 C34 62.32 34 63.64 34 65 C25.42 65 16.84 65 8 65 C8 64.01 8 63.02 8 62 C10.31 61.34 12.62 60.68 15 60 C14.00267443 55.13008048 12.89731633 50.60776823 11 46 C11 45.01 11 44.02 11 43 C3.41 43.33 -4.18 43.66 -12 44 C-14.54005791 50.30456704 -14.54005791 50.30456704 -15.6875 56.5 C-15.8421875 58.2325 -15.8421875 58.2325 -16 60 C-13.36 60.33 -10.72 60.66 -8 61 C-7.67 62.32 -7.34 63.64 -7 65 C-14.92 65 -22.84 65 -31 65 C-31 64.01 -31 63.02 -31 62 C-30.0925 61.62875 -29.185 61.2575 -28.25 60.875 C-21.24112692 56.83141938 -19.25345872 49.05848645 -16.5234375 41.8359375 C-16.11211578 40.76630768 -15.70079407 39.69667786 -15.27700806 38.59463501 C-13.96940737 35.19069893 -12.67179749 31.78306467 -11.375 28.375 C-10.06921407 24.96053327 -8.76135875 21.54687431 -7.4515686 18.13394165 C-6.63858274 16.01371499 -5.82824274 13.89247147 -5.02084351 11.77011108 C-4.65351105 10.80876251 -4.28617859 9.84741394 -3.90771484 8.85693359 C-3.58668793 8.01343353 -3.26566101 7.16993347 -2.93490601 6.3008728 C-2.05564685 4.13695101 -1.07581366 2.07211827 0 0 Z " fill="#F7F4F4" transform="translate(279,212)"/>
<path d="M0 0 C1.32 0 2.64 0 4 0 C4.229151 0.59389023 4.458302 1.18778046 4.69439697 1.79966736 C7.09284867 8.01439428 9.4944948 14.22787997 11.89794922 20.44067383 C12.79296513 22.7554649 13.68718256 25.07056488 14.58056641 27.38598633 C15.86928816 30.72560027 17.16093463 34.06407062 18.453125 37.40234375 C19.04556 38.94038918 19.04556 38.94038918 19.64996338 40.50950623 C23.10535192 50.98796985 23.10535192 50.98796985 29 60 C31.57061311 60.64767793 31.57061311 60.64767793 34 61 C34 62.32 34 63.64 34 65 C25.42 65 16.84 65 8 65 C8 64.01 8 63.02 8 62 C10.31 61.34 12.62 60.68 15 60 C14.00267443 55.13008048 12.89731633 50.60776823 11 46 C11 45.01 11 44.02 11 43 C3.41 43.33 -4.18 43.66 -12 44 C-14.54005791 50.30456704 -14.54005791 50.30456704 -15.6875 56.5 C-15.8421875 58.2325 -15.8421875 58.2325 -16 60 C-13.36 60.33 -10.72 60.66 -8 61 C-7.67 62.32 -7.34 63.64 -7 65 C-14.92 65 -22.84 65 -31 65 C-31 64.01 -31 63.02 -31 62 C-30.0925 61.62875 -29.185 61.2575 -28.25 60.875 C-21.24112692 56.83141938 -19.25345872 49.05848645 -16.5234375 41.8359375 C-16.11211578 40.76630768 -15.70079407 39.69667786 -15.27700806 38.59463501 C-13.96940737 35.19069893 -12.67179749 31.78306467 -11.375 28.375 C-10.06921407 24.96053327 -8.76135875 21.54687431 -7.4515686 18.13394165 C-6.63858274 16.01371499 -5.82824274 13.89247147 -5.02084351 11.77011108 C-4.65351105 10.80876251 -4.28617859 9.84741394 -3.90771484 8.85693359 C-3.58668793 8.01343353 -3.26566101 7.16993347 -2.93490601 6.3008728 C-2.05564685 4.13695101 -1.07581366 2.07211827 0 0 Z " fill="#F7F4F4" transform="translate(90,212)"/>
<path d="M0 0 C1.32 0 2.64 0 4 0 C4.4532666 1.19375244 4.9065332 2.38750488 5.37353516 3.61743164 C7.08314665 8.11891279 8.79450566 12.61972799 10.50634766 17.12036133 C11.24183789 19.05475521 11.97687713 20.98932064 12.71142578 22.92407227 C14.80829632 28.44659419 16.91805577 33.96392031 19.03869629 39.47735596 C19.93834344 41.83820145 20.81546306 44.20612689 21.68652344 46.57763672 C22.19428527 47.92559749 22.70239696 49.27342656 23.2109375 50.62109375 C23.84588135 52.34283813 23.84588135 52.34283813 24.49365234 54.09936523 C26.73203801 58.40961808 29.4285346 60.4761782 34 62 C34 62.99 34 63.98 34 65 C25.09 65 16.18 65 7 65 C7 64.01 7 63.02 7 62 C9.64 61.67 12.28 61.34 15 61 C14.54619105 59.10307857 14.08675008 57.20750405 13.625 55.3125 C13.36976563 54.25675781 13.11453125 53.20101562 12.8515625 52.11328125 C11.96298766 48.63373888 11.96298766 48.63373888 10 44 C2.41 43.67 -5.18 43.34 -13 43 C-13.33 44.65 -13.66 46.3 -14 48 C-14.350625 48.99 -14.70125 49.98 -15.0625 51 C-15.96582539 53.89064125 -16.25715229 55.99988993 -16 59 C-14.03177114 60.96822886 -10.65191291 60.66248381 -8 61 C-8 62.32 -8 63.64 -8 65 C-15.92 65 -23.84 65 -32 65 C-32 64.01 -32 63.02 -32 62 C-31.20335937 61.70609375 -31.20335937 61.70609375 -30.390625 61.40625 C-29.68421875 61.1071875 -28.9778125 60.808125 -28.25 60.5 C-27.55390625 60.2215625 -26.8578125 59.943125 -26.140625 59.65625 C-20.33512279 55.16440158 -18.03231543 45.205853 -15.48828125 38.53515625 C-15.07458786 37.4612413 -14.66089447 36.38732635 -14.23466492 35.28086853 C-12.92350601 31.87618114 -11.61756052 28.46952918 -10.3125 25.0625 C-8.99625511 21.63066442 -7.67884817 18.19929345 -6.35820007 14.76914978 C-5.53862923 12.6401059 -4.72167464 10.51005276 -3.907547 8.37892151 C-3.54013901 7.42380173 -3.17273102 6.46868195 -2.79418945 5.48461914 C-2.47094193 4.64048965 -2.1476944 3.79636017 -1.81465149 2.926651 C-1 1 -1 1 0 0 Z " fill="#F7F4F4" transform="translate(405,212)"/>
<path d="M0 0 C1.32 0 2.64 0 4 0 C4.96625253 2.40485837 5.93136601 4.81016302 6.89501953 7.21606445 C7.76896516 9.39432524 8.64633824 11.57121352 9.52685547 13.74682617 C11.9139591 19.67173769 14.24362636 25.60733148 16.44496155 31.60404968 C17.54951484 34.60718493 18.67506384 37.60227651 19.80166626 40.59719849 C20.34798148 42.0671406 20.88421617 43.54087093 21.41000366 45.01828003 C24.38994744 54.4986039 24.38994744 54.4986039 31.3984375 60.94921875 C33.18121094 61.46935547 33.18121094 61.46935547 35 62 C35 62.99 35 63.98 35 65 C26.09 65 17.18 65 8 65 C8 64.01 8 63.02 8 62 C10.31 61.34 12.62 60.68 15 60 C14.33425105 53.87510962 12.84081832 49.13606108 11 43 C3.41 43.33 -4.18 43.66 -12 44 C-14.7983326 51.6862852 -14.7983326 51.6862852 -15 59 C-12.36 59.99 -9.72 60.98 -7 62 C-7 62.99 -7 63.98 -7 65 C-14.92 65 -22.84 65 -31 65 C-31 64.01 -31 63.02 -31 62 C-29.78828125 61.58363281 -28.5765625 61.16726563 -27.328125 60.73828125 C-21.28923424 57.68564056 -19.94648076 52.24819981 -17.75 46.1875 C-17.07553833 44.43215942 -17.07553833 44.43215942 -16.38745117 42.64135742 C-15.41944243 40.1157633 -14.46204674 37.58851598 -13.51904297 35.05371094 C-11.93010932 30.79306487 -10.28349695 26.55581772 -8.62890625 22.3203125 C-5.72889479 14.88921037 -2.85629034 7.44801966 0 0 Z " fill="#F8F5F5" transform="translate(211,212)"/>
<path d="M0 0 C0.51046875 0.2165625 1.0209375 0.433125 1.546875 0.65625 C1.876875 -0.00375 2.206875 -0.66375 2.546875 -1.34375 C3.866875 -1.34375 5.186875 -1.34375 6.546875 -1.34375 C6.546875 5.58625 6.546875 12.51625 6.546875 19.65625 C5.226875 19.65625 3.906875 19.65625 2.546875 19.65625 C2.33933594 18.93179688 2.13179687 18.20734375 1.91796875 17.4609375 C0.12198613 11.82500878 -1.53910984 7.23324294 -6.38671875 3.62109375 C-10.36402395 1.76401552 -14.202654 1.82094005 -18.453125 2.65625 C-21.26739475 3.88702315 -21.26739475 3.88702315 -22.453125 6.65625 C-22.8275139 9.70165221 -22.78044362 12.60843074 -22.453125 15.65625 C-22.38480469 16.3678125 -22.31648438 17.079375 -22.24609375 17.8125 C-21.60437537 19.84861508 -21.60437537 19.84861508 -19.453125 20.6640625 C-18.463125 20.99148437 -17.473125 21.31890625 -16.453125 21.65625 C-13.43523132 22.90639491 -10.44666204 24.22400736 -7.453125 25.53125 C-6.26203125 26.03978516 -6.26203125 26.03978516 -5.046875 26.55859375 C0.39681985 28.94474666 4.89722113 31.26709612 8.359375 36.28125 C10.21422011 41.55291504 10.78958427 46.66965654 8.59765625 51.9375 C4.86801554 58.24376947 0.62576314 61.64714527 -6.453125 63.65625 C-14.4031999 64.42432499 -21.07508039 63.65748848 -28.453125 60.65625 C-28.948125 61.64625 -28.948125 61.64625 -29.453125 62.65625 C-30.773125 62.65625 -32.093125 62.65625 -33.453125 62.65625 C-34.62714693 55.31861293 -34.54689623 48.07459582 -34.453125 40.65625 C-33.133125 40.65625 -31.813125 40.65625 -30.453125 40.65625 C-29.79957031 42.10257812 -29.79957031 42.10257812 -29.1328125 43.578125 C-28.53212775 44.85458009 -27.9305157 46.1305991 -27.328125 47.40625 C-27.04453125 48.04046875 -26.7609375 48.6746875 -26.46875 49.328125 C-24.28739904 53.88050961 -22.10176475 56.32614823 -17.453125 58.65625 C-14.3983841 59.24350802 -14.3983841 59.24350802 -11.328125 59.09375 C-10.31492187 59.09246094 -9.30171875 59.09117187 -8.2578125 59.08984375 C-5.10377728 58.6022422 -3.71822632 57.87437917 -1.453125 55.65625 C0.10989539 50.96718882 0.51282827 46.6297071 -1.66772461 42.17480469 C-3.72080063 39.27865642 -5.08810942 38.5344969 -8.34765625 37.2265625 C-9.30349609 36.82308594 -10.25933594 36.41960937 -11.24414062 36.00390625 C-13.24567888 35.19397545 -15.24827289 34.38664843 -17.25195312 33.58203125 C-23.39218329 30.98408296 -27.88086737 28.43190015 -31.453125 22.65625 C-33.27934289 17.17759634 -33.36067869 11.70811051 -31.015625 6.40625 C-21.89835675 -3.37813544 -12.43359761 -4.76180334 0 0 Z " fill="#F7F3F3" transform="translate(41.453125,214.34375)"/>
<path d="M0 0 C18.48 0 36.96 0 56 0 C56 5.94 56 11.88 56 18 C55.01 18 54.02 18 53 18 C52.65388672 17.22076172 52.65388672 17.22076172 52.30078125 16.42578125 C50.15054175 11.82783828 48.24355005 7.97951387 44 5 C41.26641047 4.5344493 41.26641047 4.5344493 38.31640625 4.37109375 C37.3219751 4.29689209 36.32754395 4.22269043 35.30297852 4.14624023 C34.54299561 4.09798096 33.7830127 4.04972168 33 4 C33.09210172 11.51162353 33.19938463 19.02291858 33.31738281 26.53417969 C33.3557398 29.09109537 33.39058062 31.64806625 33.421875 34.20507812 C33.46737976 37.87389909 33.5253981 41.54233773 33.5859375 45.2109375 C33.59748871 46.35992523 33.60903992 47.50891296 33.62094116 48.69271851 C33.64081085 49.7536673 33.66068054 50.81461609 33.68115234 51.90771484 C33.69447601 52.84481293 33.70779968 53.78191101 33.7215271 54.74740601 C33.79034466 57.20035151 33.79034466 57.20035151 36 59 C38.32275177 59.40047444 40.65739357 59.7397104 43 60 C43 61.32 43 62.64 43 64 C33.1 64 23.2 64 13 64 C13 63.01 13 62.02 13 61 C16.3 60.34 19.6 59.68 23 59 C23.33 40.85 23.66 22.7 24 4 C12.52858816 3.62922843 12.52858816 3.62922843 8.375 8.75 C6.57304454 11.69672716 5.03345875 14.69293201 4 18 C2.68 18 1.36 18 0 18 C0 12.06 0 6.12 0 0 Z " fill="#F7F3F3" transform="translate(440,213)"/>
<path d="M0 0 C8.58 0 17.16 0 26 0 C26 1.32 26 2.64 26 4 C23.69 4.33 21.38 4.66 19 5 C19.75042725 9.83749995 21.45442402 14.23777423 23.16015625 18.80078125 C23.46948593 19.63715622 23.77881561 20.47353119 24.09751892 21.33525085 C25.08236103 23.99564091 26.07235341 26.65408021 27.0625 29.3125 C27.73276298 31.12031628 28.40268869 32.92825764 29.07226562 34.73632812 C30.71093959 39.15901087 32.35423397 43.57995171 34 48 C36.71195441 45.28804559 37.6899426 42.09602046 39.0390625 38.578125 C39.32478119 37.84051941 39.61049988 37.10291382 39.90487671 36.34295654 C40.50776638 34.78050512 41.10775942 33.21693339 41.70507812 31.65234375 C42.61774277 29.268952 43.54659795 26.89231065 44.4765625 24.515625 C45.06090139 22.99517774 45.64426639 21.47435577 46.2265625 19.953125 C46.64369003 18.89342499 46.64369003 18.89342499 47.06924438 17.81231689 C48.60867085 13.72562614 49.30222424 10.36394773 49 6 C46.36 5.34 43.72 4.68 41 4 C41 2.68 41 1.36 41 0 C48.92 0 56.84 0 65 0 C65 1.32 65 2.64 65 4 C62.98177083 4.32552083 60.96354167 4.65104167 58.9453125 4.9765625 C55.98268885 6.53521189 55.97680945 8.86978541 55 12 C54.18481371 14.0365391 53.34896485 16.06489047 52.49609375 18.0859375 C52.00657227 19.25358643 51.51705078 20.42123535 51.01269531 21.62426758 C50.75540649 22.23654205 50.49811768 22.84881653 50.23303223 23.47964478 C44.47635893 37.19491669 39.09758932 51.02469655 34 65 C31.6519928 64.82540894 31.6519928 64.82540894 29 64 C27.62840271 61.7739563 27.62840271 61.7739563 26.56811523 58.79345703 C26.16096786 57.68205353 25.7538205 56.57065002 25.33433533 55.42556763 C24.91334061 54.21520844 24.49234589 53.00484924 24.05859375 51.7578125 C23.37177062 49.87184337 22.68493416 47.98587897 21.99730778 46.10020256 C21.0375736 43.45338471 20.09616134 40.80020694 19.1550293 38.14672852 C17.50937677 33.50989676 15.84962015 28.87826882 14.16798401 24.25436401 C13.27444967 21.79173606 12.39362321 19.3244532 11.52671814 16.85232544 C11.12272293 15.73461761 10.71872772 14.61690979 10.30249023 13.46533203 C9.95339096 12.48017609 9.60429169 11.49502014 9.24461365 10.48001099 C7.85542051 7.71191162 6.63159604 6.58337791 4 5 C1.85266073 4.29485154 1.85266073 4.29485154 0 4 C0 2.68 0 1.36 0 0 Z " fill="#F5F1F1" transform="translate(311,213)"/>
<path d="M0 0 C9.24 0 18.48 0 28 0 C28 1.32 28 2.64 28 4 C26.865625 4.309375 25.73125 4.61875 24.5625 4.9375 C21.21224901 5.62924531 21.21224901 5.62924531 20 7 C19.90894999 8.40059977 19.88536169 9.8056797 19.88989258 11.20922852 C19.88931351 12.10428604 19.88873444 12.99934357 19.88813782 13.92152405 C19.89024765 14.89746017 19.89235748 15.8733963 19.89453125 16.87890625 C19.88106649 18.93555731 19.86604177 20.99219864 19.84960938 23.04882812 C19.82683691 26.29892418 19.81244394 29.54793102 19.82495117 32.7980957 C19.83380308 35.92999608 19.80476963 39.05973004 19.76953125 42.19140625 C19.78176224 43.15317276 19.79399323 44.11493927 19.80659485 45.10585022 C19.68401826 51.98581547 17.9050987 56.13321576 13 61 C6.98493999 65.95222414 0.51794135 65.66579554 -7 65 C-11.47915015 62.91487838 -14.18908976 60.62788172 -16 56 C-16.99931621 47.33925955 -16.99931621 47.33925955 -14.66796875 44.21484375 C-12.11876242 42.35816186 -10.05557957 42.67493834 -7 43 C-5 45 -5 45 -4.6875 48.3125 C-5.01588529 52.18744646 -5.9554454 53.79982758 -8 57 C-7.67 57.99 -7.34 58.98 -7 60 C-3.79779471 61.60110264 -0.47499602 61.48953317 3 61 C6.85453393 58.36268731 7.84983604 55.42489351 9 51 C9.26382434 47.52078737 9.23307361 44.05778081 9.1953125 40.5703125 C9.19106766 39.084814 9.19106766 39.084814 9.18673706 37.56930542 C9.1755847 34.42107824 9.15048907 31.27314051 9.125 28.125 C9.11496382 25.98437912 9.10583908 23.84375376 9.09765625 21.703125 C9.07566153 16.46863928 9.04116563 11.23436864 9 6 C6.03 5.34 3.06 4.68 0 4 C0 2.68 0 1.36 0 0 Z " fill="#F9F6F6" transform="translate(148,213)"/>
<path d="M0 0 C2.68300071 1.34150035 2.8437032 2.60687715 3.9453125 5.3671875 C4.29980469 6.25277344 4.65429688 7.13835937 5.01953125 8.05078125 C5.38433594 8.98277344 5.74914062 9.91476563 6.125 10.875 C6.68380859 12.26138672 6.68380859 12.26138672 7.25390625 13.67578125 C10 20.60639881 10 20.60639881 10 24 C3.73 24 -2.54 24 -9 24 C-6.03 16.08 -3.06 8.16 0 0 Z " fill="#6F3131" transform="translate(403,227)"/>
<path d="M0 0 C2.22859692 2.22859692 2.84283838 3.82373248 3.9453125 6.75390625 C4.29980469 7.69041016 4.65429688 8.62691406 5.01953125 9.59179688 C5.38433594 10.57212891 5.74914062 11.55246094 6.125 12.5625 C6.68380859 14.03879883 6.68380859 14.03879883 7.25390625 15.54492188 C10 22.84269116 10 22.84269116 10 24 C3.73 24 -2.54 24 -9 24 C-3.0625 3.0625 -3.0625 3.0625 0 0 Z " fill="#6F3131" transform="translate(210,227)"/>
<path d="M0 0 C0.66 0 1.32 0 2 0 C3.34146494 3.43438215 4.67175905 6.87298417 6 10.3125 C6.3815625 11.28896484 6.763125 12.26542969 7.15625 13.27148438 C7.5171875 14.20927734 7.878125 15.14707031 8.25 16.11328125 C8.58515625 16.97735596 8.9203125 17.84143066 9.265625 18.73168945 C10 21 10 21 10 24 C4.06 24 -1.88 24 -8 24 C-7.29613326 20.48066629 -6.60301642 17.64806207 -5.37109375 14.35546875 C-4.90219727 13.09379883 -4.90219727 13.09379883 -4.42382812 11.80664062 C-4.09833984 10.94232422 -3.77285156 10.07800781 -3.4375 9.1875 C-3.10814453 8.30384766 -2.77878906 7.42019531 -2.43945312 6.50976562 C-1.62965399 4.33856505 -0.81641107 2.16872111 0 0 Z " fill="#6F3030" transform="translate(277,227)"/>
<path d="M0 0 C0.66 0 1.32 0 2 0 C3.34146494 3.43438215 4.67175905 6.87298417 6 10.3125 C6.3815625 11.28896484 6.763125 12.26542969 7.15625 13.27148438 C7.5171875 14.20927734 7.878125 15.14707031 8.25 16.11328125 C8.58515625 16.97735596 8.9203125 17.84143066 9.265625 18.73168945 C10 21 10 21 10 24 C4.06 24 -1.88 24 -8 24 C-7.29613326 20.48066629 -6.60301642 17.64806207 -5.37109375 14.35546875 C-4.90219727 13.09379883 -4.90219727 13.09379883 -4.42382812 11.80664062 C-4.09833984 10.94232422 -3.77285156 10.07800781 -3.4375 9.1875 C-3.10814453 8.30384766 -2.77878906 7.42019531 -2.43945312 6.50976562 C-1.62965399 4.33856505 -0.81641107 2.16872111 0 0 Z " fill="#6F3030" transform="translate(88,227)"/>
<path d="M0 0 C3.88014936 1.52059907 5.73906562 3.86078531 8.25 7.125 C8.95640625 8.03507812 9.6628125 8.94515625 10.390625 9.8828125 C11.18726563 10.93082031 11.18726563 10.93082031 12 12 C12.33 8.37 12.66 4.74 13 1 C14.32 1 15.64 1 17 1 C17 7.27 17 13.54 17 20 C15.68 20 14.36 20 13 20 C10.640625 17.59375 10.640625 17.59375 8.25 14.5 C7.05117188 12.96859375 7.05117188 12.96859375 5.828125 11.40625 C5.22484375 10.6121875 4.6215625 9.818125 4 9 C3.67 12.63 3.34 16.26 3 20 C1.68 20 0.36 20 -1 20 C-1.02888514 16.85418577 -1.04675923 13.70840531 -1.0625 10.5625 C-1.07087891 9.66466797 -1.07925781 8.76683594 -1.08789062 7.84179688 C-1.09111328 6.98779297 -1.09433594 6.13378906 -1.09765625 5.25390625 C-1.10551147 4.06776733 -1.10551147 4.06776733 -1.11352539 2.85766602 C-1 1 -1 1 0 0 Z " fill="#E7DDDD" transform="translate(255,310)"/>
<path d="M0 0 C1.65322266 0.01740234 1.65322266 0.01740234 3.33984375 0.03515625 C4.99693359 0.04869141 4.99693359 0.04869141 6.6875 0.0625 C7.54214844 0.07410156 8.39679688 0.08570313 9.27734375 0.09765625 C9.27734375 1.41765625 9.27734375 2.73765625 9.27734375 4.09765625 C6.30734375 4.09765625 3.33734375 4.09765625 0.27734375 4.09765625 C0.27734375 5.74765625 0.27734375 7.39765625 0.27734375 9.09765625 C2.91734375 9.09765625 5.55734375 9.09765625 8.27734375 9.09765625 C8.27734375 10.08765625 8.27734375 11.07765625 8.27734375 12.09765625 C5.63734375 12.09765625 2.99734375 12.09765625 0.27734375 12.09765625 C0.27734375 14.07765625 0.27734375 16.05765625 0.27734375 18.09765625 C3.57734375 18.09765625 6.87734375 18.09765625 10.27734375 18.09765625 C9.94734375 19.08765625 9.61734375 20.07765625 9.27734375 21.09765625 C7.29824977 21.12452178 5.31905404 21.14399 3.33984375 21.16015625 C2.23769531 21.17175781 1.13554687 21.18335938 0 21.1953125 C-2.72265625 21.09765625 -2.72265625 21.09765625 -3.72265625 20.09765625 C-3.82125756 18.6941689 -3.85344562 17.28585148 -3.85546875 15.87890625 C-3.85675781 15.02941406 -3.85804688 14.17992187 -3.859375 13.3046875 C-3.85550781 12.41136719 -3.85164062 11.51804687 -3.84765625 10.59765625 C-3.85152344 9.70433594 -3.85539063 8.81101562 -3.859375 7.890625 C-3.85808594 7.04113281 -3.85679687 6.19164062 -3.85546875 5.31640625 C-3.85434082 4.53201172 -3.85321289 3.74761719 -3.85205078 2.93945312 C-3.63986602 -0.08077682 -3.05143485 0.10944888 0 0 Z " fill="#F0E9E9" transform="translate(232.72265625,309.90234375)"/>
<path d="M0 0 C1.65322266 0.01740234 1.65322266 0.01740234 3.33984375 0.03515625 C4.99693359 0.04869141 4.99693359 0.04869141 6.6875 0.0625 C7.54214844 0.07410156 8.39679688 0.08570313 9.27734375 0.09765625 C9.27734375 1.41765625 9.27734375 2.73765625 9.27734375 4.09765625 C6.30734375 4.09765625 3.33734375 4.09765625 0.27734375 4.09765625 C0.27734375 5.74765625 0.27734375 7.39765625 0.27734375 9.09765625 C2.91734375 9.09765625 5.55734375 9.09765625 8.27734375 9.09765625 C8.27734375 10.08765625 8.27734375 11.07765625 8.27734375 12.09765625 C5.63734375 12.09765625 2.99734375 12.09765625 0.27734375 12.09765625 C0.27734375 14.07765625 0.27734375 16.05765625 0.27734375 18.09765625 C3.57734375 18.09765625 6.87734375 18.09765625 10.27734375 18.09765625 C9.94734375 19.08765625 9.61734375 20.07765625 9.27734375 21.09765625 C7.29824977 21.12452178 5.31905404 21.14399 3.33984375 21.16015625 C2.23769531 21.17175781 1.13554687 21.18335938 0 21.1953125 C-2.72265625 21.09765625 -2.72265625 21.09765625 -3.72265625 20.09765625 C-3.82125756 18.6941689 -3.85344562 17.28585148 -3.85546875 15.87890625 C-3.85675781 15.02941406 -3.85804688 14.17992187 -3.859375 13.3046875 C-3.85550781 12.41136719 -3.85164062 11.51804687 -3.84765625 10.59765625 C-3.85152344 9.70433594 -3.85539063 8.81101562 -3.859375 7.890625 C-3.85808594 7.04113281 -3.85679687 6.19164062 -3.85546875 5.31640625 C-3.85434082 4.53201172 -3.85321289 3.74761719 -3.85205078 2.93945312 C-3.63986602 -0.08077682 -3.05143485 0.10944888 0 0 Z " fill="#EEE6E6" transform="translate(178.72265625,309.90234375)"/>
<path d="M0 0 C2.4375 1.375 2.4375 1.375 4 3 C4 3.66 4 4.32 4 5 C0.7 5 -2.6 5 -6 5 C-5.363603 8.0836385 -5.363603 8.0836385 -3.1875 8.9140625 C-2.465625 9.14867187 -1.74375 9.38328125 -1 9.625 C2.93048128 10.93048128 2.93048128 10.93048128 4 12 C4.46665026 17.36647797 4.46665026 17.36647797 2.765625 19.67578125 C0.53093461 21.35179904 -0.73189324 21.37247565 -3.5 21.3125 C-4.2734375 21.30863281 -5.046875 21.30476563 -5.84375 21.30078125 C-8 21 -8 21 -11 19 C-11 18.01 -11 17.02 -11 16 C-10.30132812 16.0721875 -9.60265625 16.144375 -8.8828125 16.21875 C-7.51769531 16.35796875 -7.51769531 16.35796875 -6.125 16.5 C-4.76761719 16.63921875 -4.76761719 16.63921875 -3.3828125 16.78125 C-1.06686789 17.03047295 -1.06686789 17.03047295 1 17 C0.67 16.01 0.34 15.02 0 14 C-1.80077673 13.0534089 -1.80077673 13.0534089 -3.9375 12.4375 C-6.72850228 11.54093484 -7.87774645 11.12225355 -10 9 C-10.3267107 5.92891945 -10.48138276 3.84949899 -8.9375 1.125 C-5.88405803 -0.64796631 -3.45262038 -0.36343372 0 0 Z " fill="#F2ECEC" transform="translate(321,310)"/>
<path d="M0 0 C3 1 3 1 4.60546875 3.72265625 C5.12753906 4.82480469 5.64960938 5.92695313 6.1875 7.0625 C6.71730469 8.16722656 7.24710938 9.27195312 7.79296875 10.41015625 C8.19128906 11.26480469 8.58960938 12.11945313 9 13 C10.65 9.04 12.3 5.08 14 1 C15.32 1 16.64 1 18 1 C15.83836487 7.93998648 13.1063786 14.43117569 10 21 C9.01 21 8.02 21 7 21 C5.62999799 18.06963123 4.28181448 15.12973086 2.9375 12.1875 C2.54755859 11.35412109 2.15761719 10.52074219 1.75585938 9.66210938 C1.39169922 8.85966797 1.02753906 8.05722656 0.65234375 7.23046875 C0.14175415 6.12288208 0.14175415 6.12288208 -0.37915039 4.99291992 C-1 3 -1 3 0 0 Z " fill="#EEE7E7" transform="translate(200,310)"/>
<path d="M0 0 C4.95 0 9.9 0 15 0 C15 1.32 15 2.64 15 4 C13.02 4 11.04 4 9 4 C9 9.61 9 15.22 9 21 C8.01 21 7.02 21 6 21 C6 15.39 6 9.78 6 4 C4.02 4 2.04 4 0 4 C0 2.68 0 1.36 0 0 Z " fill="#F0E9E9" transform="translate(284,310)"/>
<path d="M0 0 C2.31 0 4.62 0 7 0 C7 1.32 7 2.64 7 4 C4.69 4 2.38 4 0 4 C0 2.68 0 1.36 0 0 Z " fill="#E6DCDC" transform="translate(354,320)"/>
<path d="M0 0 C2.31 0 4.62 0 7 0 C7 1.32 7 2.64 7 4 C4.69 4 2.38 4 0 4 C0 2.68 0 1.36 0 0 Z " fill="#E6DCDC" transform="translate(139,320)"/>
</svg>
